<mxfile host="app.diagrams.net" agent="Mozilla/5.0 (Windows NT 10.0; Win64; x64; rv:137.0) Gecko/20100101 Firefox/137.0" version="26.2.6">
  <diagram name="Seite-1" id="l0WvUJElL2ecB1N14b2X">
    <mxGraphModel dx="1377" dy="6" grid="1" gridSize="10" guides="1" tooltips="1" connect="1" arrows="1" fold="1" page="1" pageScale="1" pageWidth="1169" pageHeight="826" math="0" shadow="0">
      <root>
        <mxCell id="0" />
        <mxCell id="1" parent="0" />
        <mxCell id="_Efm3URx336y0hWJy-us-76" style="edgeStyle=orthogonalEdgeStyle;rounded=0;orthogonalLoop=1;jettySize=auto;html=1;" edge="1" parent="1" source="_Efm3URx336y0hWJy-us-59" target="_Efm3URx336y0hWJy-us-75">
          <mxGeometry relative="1" as="geometry" />
        </mxCell>
        <mxCell id="_Efm3URx336y0hWJy-us-59" value="" style="ellipse;shape=startState;fillColor=#000000;strokeColor=#ff0000;" vertex="1" parent="1">
          <mxGeometry x="210" y="869" width="30" height="30" as="geometry" />
        </mxCell>
        <mxCell id="_Efm3URx336y0hWJy-us-87" style="edgeStyle=orthogonalEdgeStyle;rounded=0;orthogonalLoop=1;jettySize=auto;html=1;" edge="1" parent="1" source="_Efm3URx336y0hWJy-us-61" target="_Efm3URx336y0hWJy-us-78">
          <mxGeometry relative="1" as="geometry" />
        </mxCell>
        <mxCell id="_Efm3URx336y0hWJy-us-61" value="UC: Fotos &#xa;auswählen" style="" vertex="1" parent="1">
          <mxGeometry x="170" y="990" width="110" height="50" as="geometry" />
        </mxCell>
        <mxCell id="_Efm3URx336y0hWJy-us-65" value="Fotos aus Papierkrob zu einer Galerie zuweisen" style="shape=umlFrame;whiteSpace=wrap;html=1;pointerEvents=0;width=130;height=41;" vertex="1" parent="1">
          <mxGeometry x="30" y="859" width="530" height="761" as="geometry" />
        </mxCell>
        <mxCell id="_Efm3URx336y0hWJy-us-77" style="edgeStyle=orthogonalEdgeStyle;rounded=0;orthogonalLoop=1;jettySize=auto;html=1;" edge="1" parent="1" source="_Efm3URx336y0hWJy-us-75" target="_Efm3URx336y0hWJy-us-61">
          <mxGeometry relative="1" as="geometry" />
        </mxCell>
        <mxCell id="_Efm3URx336y0hWJy-us-75" value="UC: Papierkorb &#xa;öffnen" style="" vertex="1" parent="1">
          <mxGeometry x="170" y="920" width="110" height="50" as="geometry" />
        </mxCell>
        <mxCell id="_Efm3URx336y0hWJy-us-88" style="edgeStyle=orthogonalEdgeStyle;rounded=0;orthogonalLoop=1;jettySize=auto;html=1;" edge="1" parent="1" source="_Efm3URx336y0hWJy-us-78" target="_Efm3URx336y0hWJy-us-79">
          <mxGeometry relative="1" as="geometry" />
        </mxCell>
        <mxCell id="_Efm3URx336y0hWJy-us-78" value="Zu Galerie &#xa;zuweisen anklicken" style="" vertex="1" parent="1">
          <mxGeometry x="170" y="1060" width="110" height="50" as="geometry" />
        </mxCell>
        <mxCell id="_Efm3URx336y0hWJy-us-85" style="edgeStyle=orthogonalEdgeStyle;rounded=0;orthogonalLoop=1;jettySize=auto;html=1;" edge="1" parent="1" source="_Efm3URx336y0hWJy-us-79" target="_Efm3URx336y0hWJy-us-81">
          <mxGeometry relative="1" as="geometry" />
        </mxCell>
        <mxCell id="_Efm3URx336y0hWJy-us-79" value="Alle möglichen &#xa;Galerienamen anzeigen" style="" vertex="1" parent="1">
          <mxGeometry x="160" y="1130" width="130" height="50" as="geometry" />
        </mxCell>
        <mxCell id="_Efm3URx336y0hWJy-us-89" style="edgeStyle=orthogonalEdgeStyle;rounded=0;orthogonalLoop=1;jettySize=auto;html=1;" edge="1" parent="1" source="_Efm3URx336y0hWJy-us-81" target="_Efm3URx336y0hWJy-us-86">
          <mxGeometry relative="1" as="geometry">
            <Array as="points">
              <mxPoint x="340" y="1220" />
              <mxPoint x="340" y="1220" />
            </Array>
          </mxGeometry>
        </mxCell>
        <mxCell id="_Efm3URx336y0hWJy-us-90" value="Neuer Galeriename &lt;br&gt;wurde angegeben" style="edgeLabel;html=1;align=center;verticalAlign=middle;resizable=0;points=[];" vertex="1" connectable="0" parent="_Efm3URx336y0hWJy-us-89">
          <mxGeometry x="-0.2808" relative="1" as="geometry">
            <mxPoint x="1" y="-20" as="offset" />
          </mxGeometry>
        </mxCell>
        <mxCell id="_Efm3URx336y0hWJy-us-94" value="" style="edgeStyle=orthogonalEdgeStyle;rounded=0;orthogonalLoop=1;jettySize=auto;html=1;" edge="1" parent="1" source="_Efm3URx336y0hWJy-us-81" target="_Efm3URx336y0hWJy-us-98">
          <mxGeometry x="-0.2499" y="-20" relative="1" as="geometry">
            <mxPoint x="75" y="1340" as="targetPoint" />
            <Array as="points">
              <mxPoint x="70" y="1220" />
              <mxPoint x="70" y="1420" />
              <mxPoint x="265" y="1420" />
            </Array>
            <mxPoint as="offset" />
          </mxGeometry>
        </mxCell>
        <mxCell id="_Efm3URx336y0hWJy-us-95" value="&lt;div&gt;Galeriename wurde&lt;br&gt; ausgewählt&lt;/div&gt;" style="edgeLabel;html=1;align=center;verticalAlign=middle;resizable=0;points=[];" vertex="1" connectable="0" parent="_Efm3URx336y0hWJy-us-94">
          <mxGeometry x="-0.3257" y="-3" relative="1" as="geometry">
            <mxPoint x="63" y="-43" as="offset" />
          </mxGeometry>
        </mxCell>
        <mxCell id="_Efm3URx336y0hWJy-us-81" value="" style="rhombus;whiteSpace=wrap;html=1;fontColor=#000000;fillColor=#ffffc0;strokeColor=#ff0000;" vertex="1" parent="1">
          <mxGeometry x="185" y="1199" width="80" height="40" as="geometry" />
        </mxCell>
        <mxCell id="_Efm3URx336y0hWJy-us-96" style="edgeStyle=orthogonalEdgeStyle;rounded=0;orthogonalLoop=1;jettySize=auto;html=1;" edge="1" parent="1" source="_Efm3URx336y0hWJy-us-86" target="_Efm3URx336y0hWJy-us-92">
          <mxGeometry relative="1" as="geometry" />
        </mxCell>
        <mxCell id="_Efm3URx336y0hWJy-us-86" value="Galeriename validieren" style="" vertex="1" parent="1">
          <mxGeometry x="360" y="1199" width="130" height="50" as="geometry" />
        </mxCell>
        <mxCell id="_Efm3URx336y0hWJy-us-101" style="edgeStyle=orthogonalEdgeStyle;rounded=0;orthogonalLoop=1;jettySize=auto;html=1;" edge="1" parent="1" source="_Efm3URx336y0hWJy-us-92" target="_Efm3URx336y0hWJy-us-100">
          <mxGeometry relative="1" as="geometry" />
        </mxCell>
        <mxCell id="_Efm3URx336y0hWJy-us-102" value="Name existiert noch nicht" style="edgeLabel;html=1;align=center;verticalAlign=middle;resizable=0;points=[];" vertex="1" connectable="0" parent="_Efm3URx336y0hWJy-us-101">
          <mxGeometry x="-0.2441" y="2" relative="1" as="geometry">
            <mxPoint as="offset" />
          </mxGeometry>
        </mxCell>
        <mxCell id="_Efm3URx336y0hWJy-us-103" style="edgeStyle=orthogonalEdgeStyle;rounded=0;orthogonalLoop=1;jettySize=auto;html=1;" edge="1" parent="1" source="_Efm3URx336y0hWJy-us-92" target="_Efm3URx336y0hWJy-us-97">
          <mxGeometry relative="1" as="geometry">
            <Array as="points">
              <mxPoint x="530" y="1290" />
            </Array>
          </mxGeometry>
        </mxCell>
        <mxCell id="_Efm3URx336y0hWJy-us-104" value="Name existiert bereits" style="edgeLabel;html=1;align=center;verticalAlign=middle;resizable=0;points=[];" vertex="1" connectable="0" parent="_Efm3URx336y0hWJy-us-103">
          <mxGeometry x="-0.5184" y="-1" relative="1" as="geometry">
            <mxPoint x="-7" y="-21" as="offset" />
          </mxGeometry>
        </mxCell>
        <mxCell id="_Efm3URx336y0hWJy-us-92" value="" style="rhombus;whiteSpace=wrap;html=1;fontColor=#000000;fillColor=#ffffc0;strokeColor=#ff0000;" vertex="1" parent="1">
          <mxGeometry x="385" y="1270" width="80" height="40" as="geometry" />
        </mxCell>
        <mxCell id="_Efm3URx336y0hWJy-us-105" style="edgeStyle=orthogonalEdgeStyle;rounded=0;orthogonalLoop=1;jettySize=auto;html=1;" edge="1" parent="1" source="_Efm3URx336y0hWJy-us-97" target="_Efm3URx336y0hWJy-us-79">
          <mxGeometry relative="1" as="geometry" />
        </mxCell>
        <mxCell id="_Efm3URx336y0hWJy-us-97" value="Fehlermeldung &#xa;anzeigen" style="" vertex="1" parent="1">
          <mxGeometry x="420" y="1130" width="130" height="50" as="geometry" />
        </mxCell>
        <mxCell id="_Efm3URx336y0hWJy-us-108" style="edgeStyle=orthogonalEdgeStyle;rounded=0;orthogonalLoop=1;jettySize=auto;html=1;" edge="1" parent="1" source="_Efm3URx336y0hWJy-us-98" target="_Efm3URx336y0hWJy-us-99">
          <mxGeometry relative="1" as="geometry" />
        </mxCell>
        <mxCell id="_Efm3URx336y0hWJy-us-98" value="Alle Fotos zu &#xa;der Galerie hinzufügen" style="" vertex="1" parent="1">
          <mxGeometry x="200" y="1440" width="130" height="50" as="geometry" />
        </mxCell>
        <mxCell id="_Efm3URx336y0hWJy-us-109" style="edgeStyle=orthogonalEdgeStyle;rounded=0;orthogonalLoop=1;jettySize=auto;html=1;" edge="1" parent="1" source="_Efm3URx336y0hWJy-us-99" target="_Efm3URx336y0hWJy-us-107">
          <mxGeometry relative="1" as="geometry" />
        </mxCell>
        <mxCell id="_Efm3URx336y0hWJy-us-99" value="Fotos aus dem &#xa;Papierkorb entfernen" style="" vertex="1" parent="1">
          <mxGeometry x="200" y="1510" width="130" height="50" as="geometry" />
        </mxCell>
        <mxCell id="_Efm3URx336y0hWJy-us-106" style="edgeStyle=orthogonalEdgeStyle;rounded=0;orthogonalLoop=1;jettySize=auto;html=1;" edge="1" parent="1" source="_Efm3URx336y0hWJy-us-100" target="_Efm3URx336y0hWJy-us-98">
          <mxGeometry relative="1" as="geometry">
            <Array as="points">
              <mxPoint x="425" y="1420" />
              <mxPoint x="265" y="1420" />
            </Array>
          </mxGeometry>
        </mxCell>
        <mxCell id="_Efm3URx336y0hWJy-us-100" value="Galerie erstellen &#xa;mit dem neuen Namen" style="" vertex="1" parent="1">
          <mxGeometry x="360" y="1350" width="130" height="50" as="geometry" />
        </mxCell>
        <mxCell id="_Efm3URx336y0hWJy-us-107" value="" style="ellipse;html=1;shape=endState;fillColor=#000000;strokeColor=#ff0000;" vertex="1" parent="1">
          <mxGeometry x="250" y="1580" width="30" height="30" as="geometry" />
        </mxCell>
      </root>
    </mxGraphModel>
  </diagram>
</mxfile>
